<?xml version="1.0" standalone="no"?>
<!DOCTYPE svg PUBLIC "-//W3C//DTD SVG 20010904//EN"
 "http://www.w3.org/TR/2001/REC-SVG-20010904/DTD/svg10.dtd">
<svg version="1.0" xmlns="http://www.w3.org/2000/svg"
 width="607.000000pt" height="607.000000pt" viewBox="0 0 607.000000 607.000000"
 preserveAspectRatio="xMidYMid meet">
<metadata>
Created by potrace 1.14, written by Peter Selinger 2001-2017
</metadata>
<g transform="translate(0.000000,607.000000) scale(0.100000,-0.100000)"
fill="#000000" stroke="none">
<path d="M2406 5739 c-101 -25 -200 -116 -233 -213 -55 -165 21 -335 184 -409
74 -33 192 -30 264 7 208 108 250 353 90 529 -64 70 -207 111 -305 86z"/>
<path d="M3510 5741 c-97 -20 -189 -96 -234 -191 -16 -35 -21 -64 -21 -135 0
-78 4 -97 27 -140 32 -62 96 -123 163 -155 72 -35 189 -34 265 1 66 31 131 93
162 157 19 39 23 63 23 142 0 83 -4 101 -27 145 -69 131 -220 206 -358 176z"/>
<path d="M1625 4936 c-58 -27 -88 -57 -110 -109 -23 -56 -338 -2831 -331
-2916 11 -130 93 -248 218 -313 l63 -33 1565 0 1565 0 60 29 c33 17 70 29 82
28 37 -4 63 15 63 48 0 16 13 51 29 78 58 99 66 157 46 340 -8 81 -17 159 -20
175 -4 27 -3 26 61 -23 69 -53 103 -62 141 -35 18 13 140 146 495 538 62 68
58 112 -15 177 -38 35 -438 370 -728 611 -103 85 -107 90 -113 136 -5 44 -56
492 -106 938 -25 219 -45 271 -124 320 l-49 30 -1371 2 -1371 3 -50 -24z
m2234 -1148 c7 11 11 11 23 -2 8 -8 29 -16 46 -18 l32 -3 -25 -12 c-14 -6 -23
-7 -19 -2 8 14 -53 4 -73 -12 -16 -13 -17 -13 -4 4 20 26 6 32 -18 8 -11 -11
-23 -16 -26 -11 -4 6 -11 10 -16 10 -6 0 -7 -4 -4 -10 3 -5 0 -7 -9 -4 -12 5
-10 11 11 30 32 29 37 30 23 4 -7 -14 -8 -20 0 -20 6 0 16 11 22 25 8 19 14
22 20 13 6 -11 10 -10 17 0z m-19 -83 c0 -8 -4 -15 -10 -15 -5 0 -7 7 -4 15 4
8 8 15 10 15 2 0 4 -7 4 -15z m66 -77 c0 -22 1 -22 -21 1 -16 19 -16 20 2 18
11 0 19 -8 19 -19z m-451 -18 c3 -5 0 -7 -9 -4 -11 4 -14 0 -11 -13 2 -12 -2
-20 -11 -20 -8 0 -14 4 -14 9 0 4 5 8 10 8 6 0 9 3 9 8 -4 23 14 31 26 12z
m-60 -29 c-3 -6 -11 -11 -17 -11 -6 0 -6 6 2 15 14 17 26 13 15 -4z m120 -9
c-3 -3 -11 0 -18 7 -9 10 -8 11 6 5 10 -3 15 -9 12 -12z m-150 -33 c-4 -5 -12
-9 -18 -8 -9 0 -8 2 1 6 6 2 9 10 6 15 -4 7 -2 8 5 4 6 -4 9 -12 6 -17z m-11
-44 c-4 -8 -10 -13 -14 -10 -5 3 -13 -3 -19 -12 -6 -10 -11 -13 -11 -6 0 6 10
19 22 27 28 20 29 20 22 1z m-44 -67 c0 19 20 14 21 -5 1 -17 2 -17 6 0 5 17
23 24 23 8 0 -15 -28 -33 -34 -22 -4 5 -15 8 -26 6 -13 -3 -17 1 -13 12 5 12
7 12 14 1 7 -10 9 -10 9 0z m-39 -71 c-10 -9 -11 -8 -5 6 3 10 9 15 12 12 3
-3 0 -11 -7 -18z m-14 -59 c-3 -7 -5 -2 -5 12 0 14 2 19 5 13 2 -7 2 -19 0
-25z m1596 -42 c18 -7 40 -22 49 -33 25 -28 34 -104 17 -143 -29 -66 -169 -92
-169 -32 0 15 -2 15 -10 2 -9 -13 -14 -7 -11 13 0 4 -5 7 -13 7 -10 0 -17 15
-21 44 -8 50 1 90 17 80 7 -5 8 -2 3 5 -12 21 51 68 93 70 7 1 27 -5 45 -13z
m-1689 -146 c-6 -6 -10 -3 -10 10 0 13 4 16 10 10 7 -7 7 -13 0 -20z m76 -30
c0 -5 -2 -10 -4 -10 -3 0 -8 5 -11 10 -3 6 -1 10 4 10 6 0 11 -4 11 -10z m89
-4 c5 -6 19 -47 32 -91 25 -92 112 -282 170 -371 21 -33 39 -64 39 -68 0 -4 9
-21 21 -37 18 -26 19 -34 9 -59 -24 -58 -33 -54 -82 38 -26 48 -79 143 -118
212 -39 69 -94 171 -122 226 -48 95 -51 104 -39 132 11 25 18 30 46 30 19 0
39 -5 44 -12z m1811 -46 c14 -10 22 -21 19 -24 -6 -6 -51 -20 -174 -52 -33 -8
-84 -24 -112 -35 -39 -13 -53 -15 -53 -6 0 9 -2 9 -8 0 -5 -8 -13 -9 -22 -3
-10 7 -11 10 -2 10 6 0 12 6 12 14 0 15 91 51 214 86 38 11 71 22 74 25 10 9
27 5 52 -15z m-1746 -86 c3 -8 2 -12 -4 -9 -6 3 -10 10 -10 16 0 14 7 11 14
-7z m313 -43 c42 -50 52 -120 26 -171 -23 -45 -98 -85 -142 -75 -40 8 -80 41
-95 77 -18 41 -5 122 24 153 13 14 19 25 14 25 -5 0 -2 6 7 13 9 7 43 13 75
15 58 2 60 1 91 -37z m-294 10 c-3 -10 0 -22 6 -25 6 -4 11 -15 10 -24 0 -13
-3 -12 -11 6 -6 12 -15 22 -20 22 -13 0 -9 28 5 33 6 3 13 6 14 6 0 1 -1 -7
-4 -18z m1357 8 c0 -12 -29 -38 -43 -39 -5 0 -5 6 -1 13 6 9 5 9 -7 0 -11 -9
-20 -8 -39 4 -14 8 -17 12 -8 9 10 -3 20 0 24 5 3 6 17 8 31 4 16 -4 22 -2 18
5 -3 5 1 10 9 10 9 0 16 -5 16 -11z m-491 -20 c23 -7 46 -24 64 -49 31 -44 34
-71 10 -93 -16 -14 -19 -14 -33 1 -13 14 -12 15 2 10 12 -5 15 -1 14 17 0 13
-5 21 -9 18 -5 -3 -8 1 -6 8 6 45 1 49 -60 49 -42 0 -60 4 -64 14 -4 11 -1 13
10 9 10 -4 14 -2 10 4 -6 9 3 18 22 22 2 1 20 -4 40 -10z m391 -20 c0 -11 -3
-11 -24 -3 -23 9 -20 23 4 17 11 -3 20 -9 20 -14z m-17 -18 c4 -4 -13 -7 -37
-6 -30 2 -44 -1 -39 -8 4 -6 1 -7 -7 -2 -10 6 -9 11 6 22 19 14 60 10 77 -6z
m-1408 -17 c31 -4 87 -45 84 -60 -1 -5 1 -17 6 -27 12 -29 0 -111 -21 -136
-26 -30 -67 -51 -102 -51 -35 0 -92 36 -110 70 -18 34 -10 124 12 149 10 11
15 24 12 29 -3 5 0 10 7 9 6 0 21 1 32 2 16 1 17 3 6 10 -15 10 19 12 74 5z
m1638 -44 c24 -27 28 -39 26 -85 -2 -53 -34 -115 -46 -87 -2 6 -9 12 -14 12
-6 0 -7 -5 -3 -11 4 -8 0 -9 -15 -4 -14 4 -21 3 -19 -6 4 -15 -45 -29 -63 -18
-10 6 -5 9 16 10 17 1 34 1 38 0 5 -1 6 3 3 8 -3 5 -16 7 -29 4 -18 -4 -19 -3
-7 6 13 9 13 11 -1 11 -8 0 -20 -5 -27 -12 -9 -9 -16 -7 -32 10 -11 11 -16 23
-11 27 5 3 11 -1 14 -7 2 -7 8 -9 13 -5 5 5 1 14 -9 21 -9 7 -17 19 -17 27 0
8 7 4 16 -9 8 -12 33 -31 55 -43 l40 -20 30 32 c22 24 29 39 26 63 -3 30 -26
82 -27 61 0 -6 6 -17 13 -25 6 -8 1 -6 -13 5 -36 29 -40 37 -27 54 7 8 8 12 2
9 -5 -3 -19 -1 -30 3 -14 7 -7 8 25 5 35 -4 52 -12 73 -36z m-98 7 c-12 -6
-20 -6 -25 3 -6 9 -11 7 -19 -9 -7 -12 -10 -25 -7 -29 2 -4 -2 -16 -10 -27 -8
-10 -14 -14 -14 -8 0 7 5 15 10 18 8 5 8 11 1 19 -17 21 22 55 54 48 24 -4 25
-6 10 -15z m-552 -91 c35 -9 51 -26 25 -26 -9 0 -8 -4 2 -10 11 -7 11 -10 2
-10 -8 0 -10 -5 -6 -12 4 -8 3 -10 -2 -5 -5 5 -9 14 -9 20 0 17 -48 39 -56 25
-5 -7 -9 -7 -13 1 -4 6 -2 11 5 11 10 0 10 3 1 12 -7 7 -12 21 -12 33 0 18 2
17 13 -5 8 -16 26 -28 50 -34z m467 29 c0 -8 -2 -15 -4 -15 -2 0 -6 7 -10 15
-3 8 -1 15 4 15 6 0 10 -7 10 -15z m-10 -37 c0 -5 -4 -8 -10 -8 -5 0 -10 10
-10 23 0 18 2 19 10 7 5 -8 10 -18 10 -22z m-346 7 c-4 -8 -8 -15 -10 -15 -2
0 -4 7 -4 15 0 8 4 15 10 15 5 0 7 -7 4 -15z m-129 -45 c-27 -12 -35 -12 -35
0 0 6 12 10 28 9 24 0 25 -1 7 -9z m19 -87 c45 -24 100 -53 124 -65 41 -21 59
-51 50 -79 -3 -8 -9 -7 -20 5 -9 9 -23 16 -32 16 -8 0 -20 9 -26 20 -6 11 -8
20 -5 20 4 0 3 5 0 10 -4 6 -11 8 -16 4 -6 -4 -6 -11 2 -20 9 -12 6 -12 -20
-3 -17 6 -31 14 -31 18 0 4 -6 8 -12 8 -22 1 -118 59 -111 67 4 4 0 4 -10 0
-16 -6 -22 5 -18 30 1 4 -3 14 -10 22 -17 21 39 -1 135 -53z m-170 -149 c-3
-13 -14 -30 -24 -39 -17 -16 -19 -15 -30 4 -13 25 -5 42 16 34 8 -3 14 -2 13
3 -2 5 1 25 6 44 l8 35 8 -30 c5 -16 6 -39 3 -51z"/>
<path d="M3865 3770 c3 -5 8 -10 11 -10 2 0 4 5 4 10 0 6 -5 10 -11 10 -5 0
-7 -4 -4 -10z"/>
<path d="M4792 3199 c-13 -5 -29 -6 -35 -2 -7 3 -9 3 -5 -2 4 -4 2 -15 -4 -22
-7 -8 -13 -33 -14 -55 -1 -23 1 -36 5 -29 5 8 15 7 38 -4 54 -27 113 15 99 71
-8 31 -53 54 -84 43z"/>
<path d="M3300 3060 c0 -5 5 -10 11 -10 5 0 7 5 4 10 -3 6 -8 10 -11 10 -2 0
-4 -4 -4 -10z"/>
<path d="M3337 2990 c20 -44 23 -47 23 -28 0 9 -9 26 -20 39 l-20 24 17 -35z"/>
<path d="M3576 2835 c-31 -32 -11 -101 26 -89 15 4 18 3 13 -6 -5 -8 -1 -11
11 -8 10 2 25 16 33 33 12 25 12 32 0 54 -17 31 -60 39 -83 16z"/>
<path d="M3177 2752 c-23 -25 -21 -58 5 -84 l21 -21 17 21 c13 15 20 18 29 9
6 -6 11 -7 12 -1 0 5 2 19 5 32 5 26 -27 62 -54 62 -11 0 -26 -8 -35 -18z"/>
<path d="M4875 2660 c-16 -7 -17 -9 -3 -9 9 -1 20 4 23 9 7 11 7 11 -20 0z"/>
<path d="M4725 2640 c-3 -5 -2 -10 4 -10 5 0 13 5 16 10 3 6 2 10 -4 10 -5 0
-13 -4 -16 -10z"/>
<path d="M5072 3775 c-69 -58 -43 -149 51 -179 32 -10 88 24 104 63 42 100
-73 185 -155 116z"/>
<path d="M5423 3512 c-76 -12 -57 -132 21 -132 51 0 77 38 63 92 -7 28 -45 46
-84 40z"/>
<path d="M5057 1895 c-25 -25 -29 -52 -13 -84 29 -56 96 -54 123 4 16 34 16
36 -4 63 -24 32 -81 42 -106 17z"/>
<path d="M990 879 l0 -361 193 4 c175 3 196 5 241 26 112 51 185 148 204 267
30 186 -69 353 -239 406 -50 16 -92 19 -230 19 l-169 0 0 -361z m381 185 c103
-61 131 -231 52 -325 -41 -48 -95 -69 -185 -69 l-78 0 0 211 0 211 88 -4 c65
-3 98 -9 123 -24z"/>
<path d="M2231 903 c-29 -186 -55 -348 -58 -360 -5 -22 -3 -23 79 -23 l84 0
33 223 c18 122 34 223 36 225 1 1 49 -99 106 -223 95 -206 106 -225 127 -223
20 3 38 36 125 225 56 122 103 220 105 219 1 -2 16 -93 33 -202 16 -110 32
-209 34 -221 5 -22 11 -23 85 -23 44 0 80 3 80 8 0 11 -100 664 -106 690 -4
22 -8 23 -86 20 l-82 -3 -90 -207 c-50 -113 -93 -209 -96 -212 -3 -3 -48 92
-100 210 l-95 214 -80 0 -81 0 -53 -337z"/>
<path d="M3357 1068 c-37 -95 -100 -257 -141 -360 l-74 -188 87 0 86 0 23 65
24 65 141 0 142 0 23 -65 24 -65 88 0 89 0 -145 357 c-79 196 -144 358 -144
360 0 1 -35 3 -78 3 l-77 0 -68 -172z m193 -157 c22 -63 39 -116 36 -118 -2
-2 -42 -3 -88 -1 l-85 3 39 105 c21 58 41 111 43 119 8 20 10 16 55 -108z"/>
<path d="M3950 880 l0 -360 85 0 85 0 0 120 0 120 45 0 44 0 58 -101 c86 -150
74 -140 174 -137 l86 3 -77 129 -76 130 52 50 c55 54 74 98 74 171 -1 91 -46
159 -134 205 l-59 30 -179 0 -178 0 0 -360z m348 194 c34 -23 45 -60 31 -101
-15 -46 -52 -63 -139 -63 l-70 0 0 90 0 90 78 0 c55 0 84 -5 100 -16z"/>
<path d="M4570 1165 l0 -75 100 0 100 0 0 -285 0 -285 80 0 80 0 0 285 0 285
100 0 100 0 0 75 0 75 -280 0 -280 0 0 -75z"/>
<path d="M1732 808 l3 -73 170 0 170 0 3 73 3 72 -176 0 -176 0 3 -72z"/>
</g>
</svg>
